<svg version="1.1" id="Layer_1" xmlns="http://www.w3.org/2000/svg" xmlns:xlink="http://www.w3.org/1999/xlink" x="0px" y="0px"
	 viewBox="0 0 136 50" style="enable-background:new 0 0 136 50;" xml:space="preserve">
<style type="text/css">
	.st0{fill:#FEC882;}
	.st1{fill:#FFFAF3;}
	.st2{fill-rule:evenodd;clip-rule:evenodd;fill:#FEC882;}
	.st3{fill:url(#SVGID_1_);}
	.st4{fill:#322E2F;}
</style>
<path class="st0" d="M22.6,49.8c-1.3,0-2.6-0.4-3.8-1L3.9,40.2c-2.4-1.3-3.8-3.8-3.8-6.5v-17c0-2.7,1.4-5.1,3.8-6.5l14.9-8.5
	c2.4-1.3,5.2-1.3,7.6,0l14.9,8.5c2.4,1.3,3.8,3.8,3.8,6.5v17c0,2.7-1.4,5.1-3.8,6.5l-14.9,8.5C25.2,49.4,24,49.8,22.6,49.8z
	 M22.6,1.6c-0.9,0-1.8,0.3-2.7,0.7L3.9,11.5c-1.6,1-2.7,2.7-2.7,4.6v18.3c0,1.9,1,3.6,2.7,4.6l16.1,9.1c1.6,1,3.7,1,5.4,0L41.4,39
	c1.6-1,2.7-2.7,2.7-4.6V16.1c0-1.9-1-3.6-2.7-4.6l-16-9.2C24.5,1.8,23.6,1.6,22.6,1.6z"/>
<path class="st1" d="M65.6,22.9h-2.8l-4.7-7.1v7.1h-2.8V11.3h2.8l4.7,7.2v-7.2h2.8V22.9z"/>
<path class="st1" d="M71.1,13.6c0.7,0,1.3,0.2,1.8,0.5s0.9,0.7,1.1,1.3v-1.7h2.8v9.1H74v-1.7c-0.2,0.5-0.6,1-1.1,1.3
	c-0.5,0.3-1.1,0.5-1.8,0.5c-0.8,0-1.4-0.2-2-0.6c-0.6-0.4-1.1-0.9-1.4-1.6c-0.3-0.7-0.5-1.5-0.5-2.5c0-1,0.2-1.8,0.5-2.5
	c0.4-0.7,0.8-1.2,1.4-1.6C69.6,13.8,70.3,13.6,71.1,13.6z M72,16.1c-0.6,0-1.1,0.2-1.5,0.6c-0.4,0.4-0.5,0.9-0.5,1.6
	c0,0.7,0.2,1.2,0.5,1.6c0.4,0.4,0.9,0.6,1.5,0.6c0.6,0,1.1-0.2,1.5-0.6c0.4-0.4,0.6-0.9,0.6-1.6c0-0.7-0.2-1.2-0.6-1.6
	C73,16.3,72.6,16.1,72,16.1z"/>
<path class="st1" d="M84,20.5v2.4h-1.3c-1.1,0-1.9-0.3-2.5-0.8c-0.6-0.5-0.9-1.4-0.9-2.6v-3.4H78v-2.4h1.2v-2.2h2.8v2.2h1.8v2.4
	h-1.8v3.4c0,0.4,0.1,0.6,0.2,0.8c0.2,0.1,0.4,0.2,0.8,0.2H84z"/>
<path class="st1" d="M85.3,11.2c0-0.4,0.2-0.8,0.5-1C86,9.9,86.4,9.7,87,9.7c0.5,0,0.9,0.1,1.2,0.4c0.3,0.3,0.5,0.6,0.5,1
	c0,0.4-0.2,0.8-0.5,1c-0.3,0.3-0.7,0.4-1.2,0.4c-0.5,0-0.9-0.1-1.2-0.4C85.4,12,85.3,11.6,85.3,11.2z M88.4,13.8v9.1h-2.8v-9.1H88.4
	z"/>
<path class="st1" d="M94.6,13.6c0.9,0,1.7,0.2,2.4,0.6c0.7,0.4,1.3,0.9,1.7,1.6c0.4,0.7,0.6,1.5,0.6,2.5s-0.2,1.8-0.6,2.5
	c-0.4,0.7-1,1.3-1.7,1.6c-0.7,0.4-1.5,0.6-2.4,0.6c-0.9,0-1.7-0.2-2.5-0.6c-0.7-0.4-1.3-0.9-1.7-1.6c-0.4-0.7-0.6-1.5-0.6-2.5
	s0.2-1.8,0.6-2.5c0.4-0.7,1-1.2,1.7-1.6C92.9,13.8,93.7,13.6,94.6,13.6z M94.6,16.1c-0.5,0-1,0.2-1.4,0.6c-0.4,0.4-0.5,0.9-0.5,1.7
	c0,0.7,0.2,1.3,0.5,1.7c0.4,0.4,0.8,0.6,1.4,0.6c0.5,0,1-0.2,1.4-0.6c0.4-0.4,0.5-0.9,0.5-1.7c0-0.7-0.2-1.3-0.5-1.7
	C95.6,16.3,95.1,16.1,94.6,16.1z"/>
<path class="st1" d="M106.7,13.7c1.1,0,1.9,0.3,2.5,1c0.6,0.7,0.9,1.7,0.9,2.9v5.3h-2.8v-5c0-0.6-0.2-1.1-0.5-1.4
	c-0.3-0.3-0.7-0.5-1.3-0.5c-0.6,0-1,0.2-1.4,0.5c-0.3,0.4-0.5,0.9-0.5,1.5v4.8h-2.8v-9.1h2.8v1.7c0.3-0.5,0.7-1,1.2-1.3
	C105.3,13.8,106,13.7,106.7,13.7z"/>
<path class="st1" d="M115.5,13.6c0.7,0,1.3,0.2,1.8,0.5c0.5,0.3,0.9,0.7,1.1,1.3v-1.7h2.8v9.1h-2.8v-1.7c-0.2,0.5-0.6,1-1.1,1.3
	c-0.5,0.3-1.1,0.5-1.8,0.5c-0.8,0-1.4-0.2-2-0.6c-0.6-0.4-1.1-0.9-1.4-1.6c-0.3-0.7-0.5-1.5-0.5-2.5c0-1,0.2-1.8,0.5-2.5
	c0.4-0.7,0.8-1.2,1.4-1.6C114,13.8,114.7,13.6,115.5,13.6z M116.4,16.1c-0.6,0-1.1,0.2-1.5,0.6c-0.4,0.4-0.5,0.9-0.5,1.6
	c0,0.7,0.2,1.2,0.5,1.6c0.4,0.4,0.9,0.6,1.5,0.6c0.6,0,1.1-0.2,1.5-0.6c0.4-0.4,0.6-0.9,0.6-1.6c0-0.7-0.2-1.2-0.6-1.6
	C117.4,16.3,117,16.1,116.4,16.1z"/>
<path class="st1" d="M126,10.8v12.1h-2.8V10.8H126z"/>
<path class="st1" d="M59.5,30.1c1.2,0,2.1,0.3,2.9,0.9c0.8,0.6,1.2,1.4,1.4,2.5h-2c-0.1-0.6-0.4-1-0.8-1.3c-0.4-0.3-0.9-0.5-1.6-0.5
	c-0.7,0-1.3,0.3-1.8,0.8c-0.5,0.5-0.7,1.2-0.7,2.2c0,1,0.2,1.7,0.7,2.2c0.5,0.5,1.1,0.8,1.8,0.8c0.6,0,1.2-0.2,1.6-0.5
	c0.4-0.3,0.7-0.8,0.8-1.3h2c-0.2,1.1-0.7,1.9-1.4,2.5c-0.8,0.6-1.7,0.9-2.9,0.9c-0.9,0-1.7-0.2-2.3-0.6c-0.7-0.4-1.2-0.9-1.6-1.6
	c-0.4-0.7-0.6-1.5-0.6-2.5c0-0.9,0.2-1.8,0.6-2.5c0.4-0.7,0.9-1.2,1.6-1.6C57.8,30.3,58.6,30.1,59.5,30.1z"/>
<path class="st1" d="M69.3,30.1c0.8,0,1.5,0.2,2.1,0.6c0.6,0.4,1,0.9,1.2,1.6v-2.1h1.9v9h-1.9v-2.1c-0.2,0.7-0.7,1.2-1.2,1.6
	c-0.6,0.4-1.3,0.6-2.1,0.6c-0.8,0-1.5-0.2-2.1-0.6c-0.6-0.4-1.1-0.9-1.5-1.6c-0.4-0.7-0.5-1.5-0.5-2.5c0-0.9,0.2-1.8,0.5-2.5
	c0.4-0.7,0.8-1.2,1.5-1.6C67.8,30.3,68.5,30.1,69.3,30.1z M69.9,31.7c-0.8,0-1.5,0.3-2,0.8c-0.5,0.5-0.7,1.2-0.7,2.2
	c0,0.9,0.2,1.7,0.7,2.2c0.5,0.5,1.2,0.8,2,0.8c0.5,0,1-0.1,1.4-0.4c0.4-0.3,0.7-0.6,1-1s0.4-1,0.4-1.6c0-0.6-0.1-1.1-0.4-1.6
	c-0.2-0.5-0.6-0.8-1-1C70.9,31.9,70.4,31.7,69.9,31.7z"/>
<path class="st1" d="M79.7,30.1c1.1,0,1.9,0.3,2.6,0.8c0.6,0.5,1,1.3,1.2,2.2h-1.8c-0.1-0.5-0.3-0.9-0.6-1.2
	c-0.3-0.3-0.8-0.5-1.4-0.5c-0.5,0-0.8,0.1-1.1,0.3c-0.3,0.2-0.4,0.5-0.4,0.9c0,0.3,0.1,0.5,0.3,0.7c0.2,0.2,0.4,0.3,0.7,0.4
	c0.3,0.1,0.7,0.2,1.2,0.3c0.7,0.2,1.2,0.3,1.6,0.5c0.4,0.2,0.8,0.4,1.1,0.8c0.3,0.3,0.5,0.8,0.5,1.4c0,0.8-0.3,1.4-0.9,1.8
	c-0.6,0.5-1.3,0.7-2.3,0.7c-1.1,0-2-0.3-2.8-0.8c-0.7-0.5-1.1-1.3-1.3-2.2h1.8c0.1,0.5,0.3,0.9,0.7,1.2c0.4,0.3,0.9,0.5,1.5,0.5
	c0.5,0,0.8-0.1,1.1-0.3c0.3-0.2,0.4-0.5,0.4-0.9c0-0.3-0.1-0.6-0.3-0.8s-0.4-0.3-0.7-0.4c-0.3-0.1-0.7-0.2-1.2-0.3
	c-0.7-0.2-1.2-0.3-1.6-0.5c-0.4-0.2-0.8-0.4-1.1-0.7c-0.3-0.3-0.4-0.8-0.4-1.4c0-0.8,0.3-1.4,0.9-1.8C77.9,30.3,78.7,30.1,79.7,30.1
	z"/>
<path class="st1" d="M85.2,27.6c0-0.3,0.1-0.6,0.3-0.8c0.2-0.2,0.5-0.3,0.9-0.3c0.4,0,0.7,0.1,0.9,0.3c0.2,0.2,0.3,0.5,0.3,0.8
	c0,0.3-0.1,0.6-0.3,0.8c-0.2,0.2-0.5,0.3-0.9,0.3c-0.4,0-0.7-0.1-0.9-0.3C85.3,28.2,85.2,27.9,85.2,27.6z M87.4,30.2v9h-1.9v-9H87.4
	z"/>
<path class="st1" d="M94.7,30.1c1.1,0,1.9,0.3,2.5,1c0.6,0.7,1,1.6,1,2.9v5.2h-1.9v-5c0-0.8-0.2-1.4-0.6-1.9c-0.4-0.4-1-0.7-1.7-0.7
	c-0.7,0-1.3,0.2-1.8,0.7c-0.5,0.5-0.7,1.2-0.7,2.1v4.8h-1.9v-9h1.9v2c0.2-0.7,0.6-1.2,1.2-1.6C93.3,30.3,94,30.1,94.7,30.1z"/>
<path class="st1" d="M104.6,30.1c0.9,0,1.7,0.2,2.4,0.6c0.7,0.4,1.3,0.9,1.6,1.6c0.4,0.7,0.6,1.5,0.6,2.5c0,0.9-0.2,1.8-0.6,2.5
	c-0.4,0.7-0.9,1.2-1.6,1.6c-0.7,0.4-1.5,0.6-2.4,0.6s-1.7-0.2-2.4-0.6c-0.7-0.4-1.2-0.9-1.6-1.6c-0.4-0.7-0.6-1.5-0.6-2.5
	c0-0.9,0.2-1.8,0.6-2.5c0.4-0.7,1-1.2,1.6-1.6C102.9,30.3,103.7,30.1,104.6,30.1z M104.6,31.7c-0.5,0-0.9,0.1-1.3,0.3
	c-0.4,0.2-0.7,0.6-1,1c-0.2,0.4-0.4,1-0.4,1.7c0,0.7,0.1,1.2,0.4,1.7c0.3,0.4,0.6,0.8,1,1c0.4,0.2,0.9,0.3,1.3,0.3
	c0.5,0,0.9-0.1,1.3-0.3c0.4-0.2,0.7-0.6,1-1c0.3-0.4,0.4-1,0.4-1.7c0-0.7-0.1-1.2-0.4-1.7c-0.2-0.5-0.6-0.8-1-1
	C105.5,31.8,105,31.7,104.6,31.7z"/>
<path class="st2" d="M26,6.4l12.1,6.9c1.8,1.1,3,3.1,3,5.3v13.7c0,2.2-1.2,4.2-3.1,5.3L26,44.5c-1,0.6-2,0.8-3.1,0.8
	c-1.1,0-2.1-0.3-3.1-0.8L7.8,37.6c-1.9-1.1-3.1-3.1-3.1-5.3V18.6c0-2.2,1.2-4.2,3.1-5.3l12.1-6.9C21.7,5.4,24.1,5.4,26,6.4z
	 M26.8,34.8h4.7V15.7h-4.7v11.8L19,15.7h-4.7v19.1H19V23.1L26.8,34.8z"/>
<linearGradient id="SVGID_1_" gradientUnits="userSpaceOnUse" x1="123.9927" y1="26.6419" x2="123.9927" y2="45.6419">
	<stop  offset="0" style="stop-color:#FEC882"/>
	<stop  offset="1" style="stop-color:#FFA06D"/>
</linearGradient>
<path class="st3" d="M133,45.6h-18c-1.7,0-3-1.3-3-3v-13c0-1.7,1.3-3,3-3h18c1.7,0,3,1.3,3,3v13C136,44.3,134.6,45.6,133,45.6z"/>
<g>
	<path class="st4" d="M121.4,30.6c0.6,0.4,1,1,1.3,1.7v-2.2h1.9v9.5c0,0.9-0.2,1.6-0.5,2.3c-0.4,0.7-0.9,1.2-1.5,1.6
		c-0.7,0.4-1.5,0.6-2.4,0.6c-1.3,0-2.4-0.3-3.2-0.9c-0.8-0.6-1.3-1.5-1.5-2.5h1.9c0.2,0.6,0.5,1,0.9,1.3c0.5,0.3,1,0.5,1.7,0.5
		c0.8,0,1.4-0.2,1.9-0.7c0.5-0.5,0.7-1.2,0.7-2.1v-2.3c-0.2,0.7-0.7,1.2-1.3,1.7s-1.3,0.6-2.2,0.6c-0.8,0-1.5-0.2-2.2-0.6
		c-0.6-0.4-1.1-0.9-1.5-1.7c-0.4-0.7-0.5-1.6-0.5-2.6c0-1,0.2-1.8,0.5-2.5c0.4-0.7,0.9-1.3,1.5-1.7c0.6-0.4,1.4-0.6,2.2-0.6
		C120.1,30,120.8,30.2,121.4,30.6z M117.8,32.5c-0.5,0.5-0.8,1.3-0.8,2.3c0,1,0.3,1.7,0.8,2.3c0.5,0.5,1.2,0.8,2.1,0.8
		c0.5,0,1-0.1,1.5-0.4s0.8-0.6,1-1.1s0.4-1,0.4-1.6c0-0.6-0.1-1.2-0.4-1.6s-0.6-0.8-1-1.1s-0.9-0.4-1.5-0.4
		C119,31.7,118.3,32,117.8,32.5z"/>
	<path class="st4" d="M130.3,30.5c0.6-0.4,1.3-0.5,2-0.5v2.1h-0.6c-0.8,0-1.5,0.2-2,0.6c-0.5,0.4-0.8,1.1-0.8,2v4.7H127v-9.4h1.9
		v1.8C129.2,31.3,129.7,30.8,130.3,30.5z"/>
</g>
</svg>